<mxfile host="app.diagrams.net" modified="2021-07-14T14:10:00.088Z" agent="5.0 (Macintosh; Intel Mac OS X 10_15_7) AppleWebKit/537.36 (KHTML, like Gecko) Chrome/91.0.4472.124 Safari/537.36 Edg/91.0.864.64" etag="_RX2I8mxiKSHcMWHolI7" version="14.8.6" type="github">
  <diagram id="hhMV_U4f5UcyguVZydRo" name="Page-1">
    <mxGraphModel dx="1186" dy="796" grid="1" gridSize="10" guides="1" tooltips="1" connect="1" arrows="1" fold="1" page="1" pageScale="1" pageWidth="827" pageHeight="1169" math="0" shadow="0">
      <root>
        <mxCell id="0" />
        <mxCell id="1" parent="0" />
        <mxCell id="D17oQIRVx2GNHXHz7LJo-11" style="edgeStyle=orthogonalEdgeStyle;rounded=0;orthogonalLoop=1;jettySize=auto;html=1;exitX=1;exitY=0.5;exitDx=0;exitDy=0;entryX=0.5;entryY=0;entryDx=0;entryDy=0;" edge="1" parent="1" source="D17oQIRVx2GNHXHz7LJo-1" target="D17oQIRVx2GNHXHz7LJo-10">
          <mxGeometry relative="1" as="geometry" />
        </mxCell>
        <mxCell id="D17oQIRVx2GNHXHz7LJo-1" value="Insert a player data&lt;br&gt;into cache storage" style="rounded=1;whiteSpace=wrap;html=1;" vertex="1" parent="1">
          <mxGeometry x="420" y="210" width="120" height="60" as="geometry" />
        </mxCell>
        <mxCell id="D17oQIRVx2GNHXHz7LJo-4" style="edgeStyle=orthogonalEdgeStyle;rounded=0;orthogonalLoop=1;jettySize=auto;html=1;exitX=1;exitY=0.5;exitDx=0;exitDy=0;exitPerimeter=0;entryX=0;entryY=0.5;entryDx=0;entryDy=0;" edge="1" parent="1" source="D17oQIRVx2GNHXHz7LJo-3" target="D17oQIRVx2GNHXHz7LJo-1">
          <mxGeometry relative="1" as="geometry" />
        </mxCell>
        <mxCell id="D17oQIRVx2GNHXHz7LJo-5" value="Request a player data" style="edgeLabel;html=1;align=center;verticalAlign=middle;resizable=0;points=[];" vertex="1" connectable="0" parent="D17oQIRVx2GNHXHz7LJo-4">
          <mxGeometry x="0.0636" y="4" relative="1" as="geometry">
            <mxPoint x="-24" y="-39" as="offset" />
          </mxGeometry>
        </mxCell>
        <mxCell id="D17oQIRVx2GNHXHz7LJo-3" value="Database&lt;br&gt;server" style="shape=cylinder3;whiteSpace=wrap;html=1;boundedLbl=1;backgroundOutline=1;size=15;" vertex="1" parent="1">
          <mxGeometry x="120" y="200" width="60" height="80" as="geometry" />
        </mxCell>
        <mxCell id="D17oQIRVx2GNHXHz7LJo-8" style="edgeStyle=orthogonalEdgeStyle;rounded=0;orthogonalLoop=1;jettySize=auto;html=1;entryX=0.5;entryY=1;entryDx=0;entryDy=0;entryPerimeter=0;" edge="1" parent="1" source="D17oQIRVx2GNHXHz7LJo-7" target="D17oQIRVx2GNHXHz7LJo-3">
          <mxGeometry relative="1" as="geometry" />
        </mxCell>
        <mxCell id="D17oQIRVx2GNHXHz7LJo-9" value="Request update data&amp;nbsp;" style="edgeLabel;html=1;align=center;verticalAlign=middle;resizable=0;points=[];" vertex="1" connectable="0" parent="D17oQIRVx2GNHXHz7LJo-8">
          <mxGeometry x="-0.2587" relative="1" as="geometry">
            <mxPoint x="4" y="-20" as="offset" />
          </mxGeometry>
        </mxCell>
        <mxCell id="D17oQIRVx2GNHXHz7LJo-7" value="User request update&lt;br&gt;point" style="rounded=1;whiteSpace=wrap;html=1;" vertex="1" parent="1">
          <mxGeometry x="395" y="380" width="170" height="60" as="geometry" />
        </mxCell>
        <mxCell id="D17oQIRVx2GNHXHz7LJo-12" style="edgeStyle=orthogonalEdgeStyle;rounded=0;orthogonalLoop=1;jettySize=auto;html=1;entryX=1;entryY=0.5;entryDx=0;entryDy=0;exitX=0.5;exitY=1;exitDx=0;exitDy=0;" edge="1" parent="1" source="D17oQIRVx2GNHXHz7LJo-10" target="D17oQIRVx2GNHXHz7LJo-7">
          <mxGeometry relative="1" as="geometry" />
        </mxCell>
        <mxCell id="D17oQIRVx2GNHXHz7LJo-10" value="Bukkit Interface" style="rounded=1;whiteSpace=wrap;html=1;" vertex="1" parent="1">
          <mxGeometry x="620" y="290" width="120" height="60" as="geometry" />
        </mxCell>
      </root>
    </mxGraphModel>
  </diagram>
</mxfile>
